<svg version="1.2" baseProfile="tiny-ps" xmlns="http://www.w3.org/2000/svg" viewBox="0 0 201 56" width="201" height="56">
	<title>מיזם חדש</title>
	<style>
		tspan { white-space:pre }
		.txt0 { font-size: 52px;fill: #000000;font-weight: 600;font-family: "OpenSans-SemiBold", "Open Sans" } 
		.shp1 { fill: #ff6900 } 
		.shp2 { fill: #da01c0 } 
		.shp3 { fill: #ff007c } 
	</style>
	<text id="SHIK" style="transform: matrix(1.114,0,0,1.114,2.771,50.886)" >
		<tspan x="0" y="0" class="txt0">S</tspan><tspan  y="0" class="txt0">H</tspan><tspan  y="0" class="txt0">I</tspan><tspan  y="0" class="txt0">K
</tspan>
	</text>
	<path id="שכבה 2" class="shp1" d="M141 53C136.02 53 132 48.98 132 44C132 39.02 136.02 35 141 35C145.98 35 150 39.02 150 44C150 48.98 145.98 53 141 53Z" />
	<path id="שכבה 2 copy" class="shp2" d="M165 40C160.02 40 156 35.98 156 31C156 26.02 160.02 22 165 22C169.98 22 174 26.02 174 31C174 35.98 169.98 40 165 40Z" />
	<path id="שכבה 2 copy 2" class="shp3" d="M189 27C184.02 27 180 22.98 180 18C180 13.02 184.02 9 189 9C193.98 9 198 13.02 198 18C198 22.98 193.98 27 189 27Z" />
</svg>