<svg version="1.2" baseProfile="tiny-ps" xmlns="http://www.w3.org/2000/svg" viewBox="0 0 220 56" width="220" height="56">
	<title>מיזם חדש</title>
	<style>
		tspan { white-space:pre }
		.txt0 { font-size: 52px;fill: #ffffff;font-weight: 600;font-family: "OpenSans-SemiBold", "Open Sans" } 
		.shp1 { fill: #ff6900 } 
		.shp2 { fill: #da01c0 } 
		.shp3 { fill: #ff007c } 
	</style>
	<text id="SHIK" style="transform: matrix(1.114,0,0,1.114,11.771,50.886)" >
		<tspan x="0" y="0" class="txt0">S</tspan><tspan  y="0" class="txt0">H</tspan><tspan  y="0" class="txt0">I</tspan><tspan  y="0" class="txt0">K
</tspan>
	</text>
	<path id="שכבה 2" class="shp1" d="M153 53C148.02 53 144 48.98 144 44C144 39.02 148.02 35 153 35C157.98 35 162 39.02 162 44C162 48.98 157.98 53 153 53Z" />
	<path id="שכבה 2 copy" class="shp2" d="M177 40C172.02 40 168 35.98 168 31C168 26.02 172.02 22 177 22C181.98 22 186 26.02 186 31C186 35.98 181.98 40 177 40Z" />
	<path id="שכבה 2 copy 2" class="shp3" d="M201 27C196.02 27 192 22.98 192 18C192 13.02 196.02 9 201 9C205.98 9 210 13.02 210 18C210 22.98 205.98 27 201 27Z" />
</svg>