<svg width="0" height="0" class="hidden">
  <symbol version="1.0" xmlns="http://www.w3.org/2000/svg" preserveAspectRatio="xMidYMid meet" viewBox="0 0 300.000000 300.000000" id="et">
    <metadata>Created by potrace 1.10, written by Peter Selinger 2001-2011</metadata>
    <g transform="translate(0.000000,300.000000) scale(0.100000,-0.100000)" fill="#000000" stroke="none">
      <path d="M1220 2967 c-105 -32 -175 -72 -246 -142 -89 -87 -108 -142 -108
-305 -1 -134 10 -194 65 -368 40 -124 132 -358 175 -444 19 -37 34 -69 34 -72
0 -2 -53 -48 -117 -102 -159 -132 -445 -420 -515 -520 -259 -364 -233 -705 63
-847 89 -43 188 -62 279 -53 189 17 451 137 752 342 l107 73 49 -87 c27 -48
71 -127 98 -177 27 -49 70 -111 95 -138 l46 -48 74 27 c107 38 229 103 229
122 0 9 -42 95 -94 191 -137 257 -178 343 -169 351 4 3 80 64 168 135 157 126
329 285 386 356 25 32 27 40 18 65 -10 29 -100 110 -167 151 -77 47 -81 45
-396 -200 -103 -81 -191 -147 -195 -147 -4 0 -56 102 -116 226 l-109 226 84
76 c256 234 362 390 404 594 30 143 13 262 -55 404 -88 185 -294 319 -509 331
-103 5 -91 -8 30 -32 94 -19 194 -56 255 -93 255 -158 336 -492 190 -783 -57
-114 -124 -197 -281 -347 -79 -76 -144 -144 -144 -152 0 -7 52 -118 115 -247
91 -184 118 -233 134 -233 10 0 90 55 176 123 271 212 323 247 363 247 10 0
56 -30 103 -68 60 -48 85 -74 87 -92 2 -21 -18 -46 -115 -141 -65 -63 -176
-161 -248 -218 -161 -129 -205 -170 -205 -193 0 -21 92 -207 191 -389 38 -69
69 -128 69 -132 0 -16 -226 -117 -262 -117 -27 0 -78 70 -162 222 -91 164
-121 208 -142 208 -9 0 -68 -35 -132 -78 -159 -107 -218 -141 -362 -211 -271
-132 -449 -151 -626 -67 -94 45 -147 94 -186 174 -31 63 -33 72 -33 182 0 87
5 129 19 170 32 94 87 196 155 287 78 107 320 349 494 496 94 81 127 114 127
131 0 13 -18 63 -41 112 -94 203 -186 467 -213 613 -30 156 -17 304 34 385 59
97 193 173 365 207 142 28 160 38 65 38 -48 0 -102 -8 -150 -22z"></path>
      <path d="M1371 2914 c-27 -22 -31 -32 -31 -75 0 -41 5 -54 30 -80 53 -56 128
-37 160 42 16 38 5 76 -32 111 -39 37 -85 38 -127 2z m118 -30 c12 -15 21 -37
21 -49 0 -38 -37 -75 -75 -75 -38 0 -75 37 -75 75 0 38 37 75 75 75 24 0 39
-7 54 -26z"></path>
      <path d="M1655 2845 c-14 -13 -25 -35 -25 -49 0 -34 46 -86 76 -86 35 0 74 42
74 80 0 38 -39 80 -75 80 -14 0 -37 -11 -50 -25z m89 -27 c9 -12 16 -26 16
-30 0 -13 -39 -48 -54 -48 -37 0 -61 61 -34 88 19 19 55 14 72 -10z"></path>
      <path d="M1130 2793 c-56 -21 -70 -96 -24 -132 37 -29 58 -26 88 10 34 40 33
64 -3 100 -30 30 -35 31 -61 22z m41 -33 c27 -15 26 -66 -2 -80 -16 -9 -26 -8
-45 5 -28 18 -31 41 -7 67 19 21 27 22 54 8z"></path>
      <path d="M1854 2750 c-12 -4 -31 -21 -43 -36 -72 -91 57 -207 140 -125 42 42
40 92 -5 137 -34 34 -54 40 -92 24z m61 -26 c8 -4 22 -19 30 -35 36 -68 -51
-133 -105 -79 -29 29 -26 74 6 99 28 22 42 25 69 15z"></path>
      <path d="M1443 2690 c-58 -12 -116 -44 -156 -85 -95 -98 -72 -243 92 -590 61
-127 80 -152 105 -138 32 18 200 170 238 215 22 26 58 83 80 125 38 74 40 82
36 148 -10 146 -100 276 -218 313 -52 17 -130 22 -177 12z m177 -46 c103 -32
180 -142 188 -270 4 -65 1 -79 -25 -136 -17 -35 -49 -85 -71 -113 -42 -51
-240 -230 -247 -224 -12 13 -148 318 -170 382 -55 165 -43 270 39 326 83 58
177 69 286 35z"></path>
      <path d="M1415 2613 c-112 -59 -133 -151 -75 -326 30 -89 88 -207 115 -236 28
-29 33 0 9 53 -34 75 -74 238 -74 303 0 60 15 95 55 133 24 22 35 25 105 25
66 0 83 -4 109 -23 27 -20 32 -21 37 -7 9 22 -14 45 -71 71 -61 29 -163 32
-210 7z m13 -53 c-56 -49 -73 -101 -65 -198 5 -66 5 -67 -8 -27 -7 22 -14 70
-14 106 -1 78 18 110 83 140 23 10 43 19 45 19 2 0 -16 -18 -41 -40z"></path>
      <path d="M2138 2675 c-3 -4 3 -37 14 -73 29 -99 35 -277 13 -377 -48 -219
-212 -459 -419 -615 -31 -23 -56 -48 -56 -54 0 -18 157 -333 170 -341 12 -8
60 31 60 49 0 6 -28 66 -62 133 l-63 121 30 23 c114 89 255 271 325 422 63
136 75 198 74 392 0 154 -2 177 -25 245 -23 68 -43 93 -61 75z m22 -609 c-25
-113 -158 -316 -294 -448 l-99 -97 33 -73 c19 -40 47 -95 62 -122 17 -28 26
-56 23 -65 -6 -14 -8 -14 -22 4 -34 45 -145 288 -134 294 29 18 123 103 184
166 77 78 183 231 221 318 29 65 37 72 26 23z"></path>
      <path d="M1004 2554 c-34 -17 -64 -61 -64 -95 0 -34 41 -88 77 -100 56 -18
123 37 123 101 0 34 -28 78 -60 95 -35 18 -37 18 -76 -1z m89 -42 c24 -21 22
-77 -3 -102 -42 -42 -120 -10 -120 50 0 66 72 97 123 52z"></path>
      <path d="M1920 2480 c-29 -29 -24 -77 12 -103 25 -19 28 -19 52 -3 36 23 43
61 19 94 -26 35 -56 39 -83 12z m65 -45 c0 -25 -4 -31 -27 -33 -19 -2 -28 2
-33 18 -8 27 12 52 39 48 16 -2 21 -10 21 -33z"></path>
      <path d="M1046 2309 c-50 -40 -22 -119 43 -119 58 0 80 72 36 115 -29 30 -45
31 -79 4z m68 -31 c20 -28 4 -58 -29 -58 -35 0 -52 36 -29 61 22 25 39 24 58
-3z"></path>
      <path d="M1867 2259 c-24 -14 -47 -62 -47 -99 0 -21 9 -41 29 -61 40 -39 82
-39 122 0 60 60 25 171 -53 171 -18 0 -41 -5 -51 -11z m92 -33 c6 -7 12 -30
13 -50 2 -66 -53 -97 -103 -58 -28 23 -30 73 -4 102 21 23 77 27 94 6z"></path>
      <path d="M1120 2110 c-44 -44 -9 -130 52 -130 33 0 68 42 68 80 0 58 -79 91
-120 50z m87 -36 c12 -19 11 -24 -5 -44 -24 -30 -69 -21 -78 15 -13 52 52 75
83 29z"></path>
      <path d="M1736 2008 c-21 -30 -20 -50 5 -82 38 -48 99 -23 99 41 0 58 -73 86
-104 41z m75 -24 c9 -11 10 -20 2 -32 -13 -22 -43 -22 -56 -1 -24 38 25 68 54
33z"></path>
      <path d="M1189 1921 c-33 -34 -38 -75 -14 -121 30 -59 98 -68 146 -21 62 62
20 171 -66 171 -27 0 -44 -8 -66 -29z m120 -27 c27 -35 26 -59 -4 -89 -46 -47
-118 -19 -118 45 0 66 82 95 122 44z"></path>
      <path d="M161 1894 c0 -11 3 -14 6 -6 3 7 2 16 -1 19 -3 4 -6 -2 -5 -13z"></path>
      <path d="M1594 1900 c-65 -26 -84 -112 -35 -161 40 -39 82 -39 122 0 42 42 40
92 -5 137 -35 35 -47 39 -82 24z m57 -30 c19 0 40 -69 29 -90 -12 -22 -41 -40
-65 -40 -21 0 -65 44 -65 65 0 25 58 78 76 71 9 -3 20 -6 25 -6z"></path>
      <path d="M1355 1695 c-16 -15 -25 -36 -25 -55 0 -36 38 -80 70 -80 26 0 70 46
70 72 0 27 -26 74 -45 82 -29 11 -45 7 -70 -19z m73 -17 c19 -19 15 -66 -8
-78 -42 -23 -82 25 -55 66 17 26 44 31 63 12z"></path>
      <path d="M1133 1532 c-32 -5 -73 -58 -73 -93 0 -68 60 -120 114 -99 31 11 76
67 76 93 0 56 -62 108 -117 99z m69 -49 c39 -35 4 -113 -51 -113 -32 0 -44 8
-60 38 -33 63 57 124 111 75z"></path>
      <path d="M1394 1506 c-28 -28 -34 -42 -34 -75 0 -58 43 -105 95 -105 53 0 95
47 95 107 -1 45 -11 63 -50 90 -37 26 -68 21 -106 -17z m105 -13 c53 -45 24
-133 -43 -133 -68 0 -95 81 -42 127 32 28 56 29 85 6z"></path>
      <path d="M2339 1381 c-56 -57 -27 -145 53 -158 32 -5 41 -1 68 25 23 24 30 39
30 70 0 85 -91 123 -151 63z m111 -21 c27 -27 25 -56 -6 -86 -27 -28 -63 -27
-96 3 -24 21 -23 44 3 77 25 32 70 35 99 6z"></path>
      <path d="M970 1377 c-13 -7 -31 -25 -40 -40 -13 -24 -13 -30 0 -54 36 -65 122
-51 128 20 2 28 -2 42 -22 62 -29 29 -32 29 -66 12z m52 -34 c32 -29 16 -73
-27 -73 -42 0 -59 44 -29 74 20 20 33 20 56 -1z"></path>
      <path d="M1192 1251 c-113 -101 -270 -265 -351 -366 -68 -85 -114 -173 -133
-256 -10 -44 -9 -55 6 -84 29 -53 62 -61 159 -41 146 32 283 95 482 224 138
89 175 120 175 145 0 23 -184 412 -208 440 -8 9 -21 17 -29 17 -7 0 -53 -35
-101 -79z m169 -72 c34 -68 81 -166 105 -216 l43 -93 -77 -54 c-235 -165 -460
-270 -603 -283 -54 -5 -68 -3 -83 13 -46 45 24 212 152 365 74 88 391 403 398
396 2 -2 31 -59 65 -128z"></path>
      <path d="M1118 1058 c-201 -211 -243 -260 -278 -332 -29 -57 -39 -119 -22
-130 5 -3 40 33 78 80 38 46 149 170 247 275 97 105 177 199 177 208 0 10 -11
27 -24 40 l-23 22 -155 -163z m172 101 c0 -5 -82 -98 -182 -206 -101 -108
-200 -216 -220 -241 -45 -52 -50 -35 -10 29 38 58 87 114 254 291 126 133 158
159 158 127z"></path>
      <path d="M1509 1301 c-36 -36 -37 -70 -3 -110 32 -38 66 -40 99 -6 42 41 31
105 -22 133 -32 17 -41 15 -74 -17z m72 -11 c13 -7 19 -21 19 -45 0 -49 -42
-71 -74 -39 -21 20 -20 53 1 76 19 21 27 22 54 8z"></path>
      <path d="M2202 1237 c-29 -31 -29 -77 1 -105 30 -28 58 -28 85 1 29 31 29 80
0 107 -29 26 -59 25 -86 -3z m78 -22 c7 -8 10 -25 6 -39 -8 -33 -42 -43 -67
-20 -23 21 -24 37 -3 58 20 20 48 20 64 1z"></path>
      <path d="M2589 1183 c-88 -109 -244 -260 -362 -349 -55 -42 -106 -78 -114 -81
-7 -3 -13 -13 -13 -22 0 -28 201 -416 217 -419 19 -5 18 2 -40 226 l-44 172
76 54 c133 94 236 208 322 354 38 65 51 124 29 137 -5 3 -37 -29 -71 -72z m22
-40 c-63 -124 -186 -261 -309 -348 -98 -69 -99 -72 -72 -190 12 -53 20 -99 17
-101 -3 -3 -24 30 -47 73 -43 79 -72 144 -68 148 2 2 44 34 95 71 119 90 260
220 336 312 33 39 61 72 64 72 2 0 -5 -17 -16 -37z"></path>
      <path d="M814 1220 c-58 -23 -70 -95 -25 -141 39 -39 75 -38 112 2 38 41 37
73 -5 115 -35 35 -46 39 -82 24z m74 -49 c20 -25 10 -63 -19 -80 -24 -13 -29
-13 -53 2 -18 12 -26 26 -26 47 0 53 64 74 98 31z"></path>
      <path d="M1589 1131 c-31 -31 -36 -59 -18 -94 37 -73 128 -77 164 -7 22 43 19
68 -14 101 -41 40 -91 40 -132 0z m113 -18 c24 -21 23 -58 -2 -83 -56 -56
-146 23 -93 82 20 22 70 23 95 1z"></path>
      <path d="M2034 1120 c-46 -18 -68 -85 -44 -131 15 -28 65 -51 95 -43 37 9 65
50 65 94 0 30 -6 44 -31 64 -32 27 -50 30 -85 16z m76 -40 c24 -24 25 -48 4
-78 -19 -28 -67 -29 -94 -2 -26 26 -25 46 5 75 29 30 58 32 85 5z"></path>
      <path d="M664 1060 c-32 -13 -64 -59 -64 -91 0 -34 44 -86 80 -94 38 -9 93 32
104 78 11 44 -2 76 -44 100 -31 19 -45 20 -76 7z m83 -42 c18 -15 16 -68 -4
-90 -9 -10 -30 -18 -46 -18 -66 0 -91 70 -40 110 28 22 63 21 90 -2z"></path>
      <path d="M1845 955 c-30 -30 -31 -54 -4 -89 28 -35 70 -35 98 0 27 35 27 65
-2 92 -30 29 -62 28 -92 -3z m85 -26 c9 -16 8 -25 -6 -40 -28 -31 -74 -18 -74
21 0 41 61 55 80 19z"></path>
      <path d="M1659 863 c-33 -20 -59 -63 -59 -97 0 -31 51 -92 85 -100 30 -8 77
14 99 46 9 12 16 40 16 61 0 31 -7 46 -34 73 -38 38 -67 42 -107 17z m74 -24
c24 -11 47 -47 47 -73 0 -7 -9 -25 -21 -40 -40 -50 -129 -23 -129 40 0 34 17
63 43 74 30 12 32 12 60 -1z"></path>
      <path d="M532 847 c-26 -27 -28 -54 -6 -85 22 -31 67 -29 93 4 27 34 26 50 -4
79 -30 31 -55 32 -83 2z m66 -19 c21 -21 14 -47 -15 -54 -19 -5 -30 -2 -39 11
-26 36 22 75 54 43z"></path>
      <path d="M474 685 c-74 -51 -37 -165 52 -165 42 0 84 47 84 94 0 68 -81 110
-136 71z m105 -49 c12 -25 11 -31 -6 -55 -26 -33 -65 -39 -92 -12 -25 25 -27
49 -5 79 24 35 84 28 103 -12z"></path>
      <path d="M1441 674 c-29 -37 -27 -76 6 -108 49 -49 123 -9 123 66 0 64 -89 92
-129 42z m97 -46 c3 -32 -1 -40 -21 -49 -48 -22 -90 28 -60 71 11 15 23 20 46
18 29 -3 32 -7 35 -40z"></path>
      <path d="M1827 679 c-24 -14 -48 -64 -43 -91 3 -13 5 -27 5 -31 1 -4 13 -19
27 -32 48 -45 118 -28 144 34 33 80 -59 163 -133 120z m95 -36 c24 -21 23 -68
-2 -93 -58 -58 -142 20 -94 88 18 27 69 30 96 5z"></path>
      <path d="M1294 589 c-27 -13 -54 -60 -54 -92 0 -14 12 -39 26 -56 54 -65 154
-22 154 66 0 65 -68 110 -126 82z m74 -36 c31 -28 35 -56 11 -86 -39 -51 -109
-25 -109 39 0 55 57 82 98 47z"></path>
      <path d="M1942 497 c-31 -33 -29 -80 4 -106 34 -27 50 -26 79 4 32 31 33 74 2
103 -30 28 -58 28 -85 -1z m80 -33 c11 -23 10 -29 -11 -45 -39 -31 -85 6 -61
50 16 31 57 28 72 -5z"></path>
      <path d="M526 454 c-31 -32 -33 -53 -5 -88 40 -51 109 -23 109 46 0 32 -31 68
-59 68 -10 0 -30 -12 -45 -26z m74 -19 c26 -32 -13 -81 -47 -59 -23 14 -28 41
-13 59 16 19 44 19 60 0z"></path>
      <path d="M1061 434 c-27 -34 -26 -57 2 -90 44 -51 117 -22 117 47 0 65 -80 93
-119 43z m93 -26 c15 -24 -3 -52 -36 -56 -32 -4 -52 20 -44 53 6 22 12 26 38
23 17 -2 36 -11 42 -20z"></path>
      <path d="M1540 344 c-172 -113 -391 -223 -514 -259 -66 -19 -112 -25 -182 -25
-55 0 -94 -4 -94 -10 0 -17 51 -24 175 -24 162 1 305 39 488 130 102 51 306
186 313 206 6 19 -15 70 -31 75 -5 1 -75 -40 -155 -93z m150 37 c0 -20 -90
-86 -215 -159 -90 -51 -305 -141 -305 -127 0 2 56 33 126 69 69 36 164 91 212
123 48 32 91 60 96 62 5 2 25 14 44 27 42 29 42 29 42 5z"></path>
      <path d="M789 407 c-8 -7 -23 -24 -33 -39 -15 -23 -16 -33 -6 -62 30 -92 144
-102 180 -16 16 38 7 70 -26 103 -29 30 -86 36 -115 14z m101 -37 c40 -40 11
-110 -45 -110 -31 0 -75 41 -75 70 0 29 35 60 70 60 17 0 39 -9 50 -20z"></path>
      <path d="M2024 346 c-43 -43 -44 -77 -5 -117 56 -56 141 -23 141 55 0 48 -8
65 -41 81 -41 22 -57 19 -95 -19z m96 -16 c11 -11 20 -29 20 -40 0 -26 -34
-60 -62 -60 -47 0 -74 56 -45 92 25 32 60 35 87 8z"></path>
      <path d="M2230 136 c-47 -24 -116 -54 -153 -66 l-68 -23 20 -20 c47 -48 166
-9 263 85 82 80 64 87 -62 24z m-60 -71 c0 -8 -82 -47 -88 -41 -7 8 -4 10 43
29 47 19 45 18 45 12z"></path>
    </g>
  </symbol>
  <symbol version="1.0" xmlns="http://www.w3.org/2000/svg" preserveAspectRatio="xMidYMid meet" viewBox="0 0 300.000000 300.000000" id="dashboard">
    <metadata>Created by potrace 1.10, written by Peter Selinger 2001-2011</metadata>
    <g transform="translate(0.000000,300.000000) scale(0.100000,-0.100000)" fill="#000000" stroke="none">
      <path d="M2518 2935 c-119 -44 -218 -172 -218 -281 l0 -34 -1125 2 -1125 3 0
-937 0 -938 705 0 705 0 0 -32 c0 -62 31 -163 77 -258 40 -81 61 -109 142
-190 78 -78 112 -104 181 -138 112 -56 219 -82 335 -82 216 0 386 70 536 219
158 159 228 342 216 570 -9 187 -73 334 -203 471 l-74 77 0 456 0 456 43 11
c98 27 190 113 222 211 24 71 17 178 -15 244 -34 70 -108 139 -175 164 -65 24
-170 27 -227 6z m252 -56 c99 -53 149 -138 150 -255 0 -128 -68 -226 -192
-276 -97 -39 -88 10 -88 -511 l1 -459 51 -52 c155 -156 228 -324 228 -525 0
-131 -21 -219 -77 -331 -38 -77 -63 -110 -128 -175 -94 -93 -161 -136 -282
-177 -178 -62 -375 -48 -551 38 -81 39 -109 60 -187 138 -75 74 -99 107 -133
176 -40 82 -74 197 -74 250 0 14 -7 33 -16 43 -14 16 -60 17 -704 17 l-688 0
0 905 0 905 423 0 c232 0 731 0 1109 0 l687 0 15 22 c9 12 16 36 16 54 0 43
56 150 93 178 78 58 137 77 225 71 46 -3 79 -13 122 -36z"></path>
      <path d="M2545 2878 c-78 -29 -143 -98 -171 -181 -21 -63 -15 -121 22 -193 48
-95 126 -143 230 -144 147 0 253 110 254 264 0 108 -54 197 -148 242 -44 21
-145 28 -187 12z m182 -42 c39 -20 89 -69 111 -110 11 -21 16 -54 16 -101 0
-78 -14 -113 -65 -164 -51 -51 -86 -65 -164 -65 -78 0 -113 14 -164 65 -51 51
-65 86 -65 164 0 47 5 80 17 102 26 48 84 100 131 117 50 19 140 15 183 -8z"></path>
      <path d="M127 2542 c-16 -17 -17 -90 -17 -853 0 -739 2 -837 16 -857 l15 -22
659 0 659 0 15 22 c9 13 16 43 16 70 0 53 -15 68 -69 68 l-31 0 0 250 0 250
110 0 110 0 0 -81 c0 -79 10 -119 31 -119 6 0 37 22 68 48 75 64 111 89 179
122 194 93 420 95 623 4 57 -26 60 -26 79 -9 20 18 20 31 20 440 -1 482 9 435
-100 479 -36 15 -71 30 -78 33 -8 4 -71 -52 -163 -144 l-149 -149 0 -63 c0
-56 -3 -66 -29 -92 -24 -24 -38 -29 -76 -29 -38 0 -52 5 -76 29 -26 26 -29 36
-29 92 0 62 0 62 -52 114 l-53 52 -74 -3 -74 -2 -121 -121 -121 -121 3 -58 c3
-53 0 -62 -26 -90 -24 -26 -38 -32 -71 -32 -53 0 -89 17 -107 51 -24 48 -18
87 21 126 35 35 38 36 92 30 l57 -6 123 123 123 123 0 65 c0 62 2 68 31 92 45
38 110 37 150 -3 26 -26 29 -36 29 -93 0 -63 0 -64 49 -112 l50 -49 76 0 77 0
144 144 c161 160 161 162 116 244 l-27 50 -1091 3 c-1047 2 -1091 1 -1107 -16z
m2207 -64 l27 -52 -142 -142 c-140 -140 -142 -142 -174 -133 -21 6 -43 6 -61
-1 -26 -10 -31 -7 -76 37 -43 43 -47 51 -40 78 20 71 -37 156 -111 170 -58 11
-119 -22 -147 -80 -20 -41 -21 -52 -12 -83 l12 -37 -117 -117 c-97 -97 -121
-117 -138 -111 -60 22 -136 -10 -166 -69 -24 -47 -24 -79 0 -126 24 -47 72
-75 127 -75 82 0 138 63 131 150 l-4 52 113 112 112 112 67 1 c65 1 66 1 110
-44 40 -40 44 -48 36 -75 -26 -96 66 -186 168 -164 70 15 121 99 102 166 -9
29 -5 35 134 173 l143 143 34 -21 c18 -11 52 -26 76 -33 l42 -12 0 -428 0
-427 -54 29 c-61 33 -171 64 -266 74 -187 20 -428 -67 -570 -205 l-50 -49 0
105 0 104 -140 0 -140 0 0 -280 0 -280 56 0 c47 0 55 -3 50 -16 -3 -9 -6 -31
-6 -50 l0 -34 -660 0 -660 0 0 845 0 845 1084 0 1083 0 27 -52z"></path>
      <path d="M230 2390 l0 -50 50 0 50 0 0 50 0 50 -50 0 -50 0 0 -50z m60 0 c0
-5 -4 -10 -10 -10 -5 0 -10 5 -10 10 0 6 5 10 10 10 6 0 10 -4 10 -10z"></path>
      <path d="M420 2390 l0 -50 330 0 330 0 0 50 0 50 -330 0 -330 0 0 -50z m620 0
c0 -6 -105 -10 -295 -10 -190 0 -295 4 -295 10 0 6 105 10 295 10 190 0 295
-4 295 -10z"></path>
      <path d="M230 2206 l0 -44 50 -4 50 -3 0 48 0 47 -50 0 -50 0 0 -44z m60 -1
c0 -8 -4 -15 -10 -15 -5 0 -10 7 -10 15 0 8 5 15 10 15 6 0 10 -7 10 -15z"></path>
      <path d="M420 2203 l0 -48 330 0 330 0 0 48 0 47 -330 0 -330 0 0 -47z m620 2
c0 -13 -39 -15 -295 -15 -256 0 -295 2 -295 15 0 13 39 15 295 15 256 0 295
-2 295 -15z"></path>
      <path d="M230 2015 l0 -45 50 0 50 0 0 45 0 45 -50 0 -50 0 0 -45z m60 0 c0
-8 -4 -15 -10 -15 -5 0 -10 7 -10 15 0 8 5 15 10 15 6 0 10 -7 10 -15z"></path>
      <path d="M420 2015 l0 -45 330 0 330 0 0 45 0 45 -330 0 -330 0 0 -45z m620 0
c0 -13 -39 -15 -295 -15 -256 0 -295 2 -295 15 0 13 39 15 295 15 256 0 295
-2 295 -15z"></path>
      <path d="M230 1828 l0 -48 50 0 50 0 0 48 0 48 -50 0 -50 0 0 -48z m60 -3 c0
-8 -4 -15 -10 -15 -5 0 -10 7 -10 15 0 8 5 15 10 15 6 0 10 -7 10 -15z"></path>
      <path d="M420 1828 l0 -48 330 0 330 0 0 48 0 47 -330 0 -330 0 0 -47z m624
-3 c-5 -13 -48 -15 -300 -15 -255 0 -294 2 -294 15 0 13 40 15 300 15 262 0
299 -2 294 -15z"></path>
      <path d="M980 1315 l0 -375 145 0 145 0 0 375 0 375 -145 0 -145 0 0 -375z
m251 87 c0 -136 0 -283 1 -327 0 -44 0 -86 -1 -92 -1 -10 -29 -13 -106 -13
l-105 0 -1 138 c-1 151 -1 248 0 424 l1 117 33 3 c17 2 65 2 105 0 l72 -4 1
-246z"></path>
      <path d="M1072 1613 c-19 -17 -21 -32 -23 -188 -2 -93 -3 -220 -1 -282 2 -130
9 -143 77 -143 76 0 75 -6 75 315 0 282 0 284 -22 299 -30 21 -81 20 -106 -1z
m98 -300 l0 -283 -45 0 -45 0 0 283 0 282 45 0 45 0 0 -282z"></path>
      <path d="M230 1175 l0 -235 145 0 145 0 0 235 0 235 -145 0 -145 0 0 -235z
m252 48 c2 -82 2 -172 0 -200 l-3 -53 -105 0 -104 0 0 200 0 200 104 0 105 0
3 -147z"></path>
      <path d="M312 1328 c-8 -8 -12 -57 -12 -154 0 -164 4 -174 75 -174 70 0 75 10
75 166 0 75 -5 144 -10 155 -9 15 -22 19 -63 19 -29 0 -58 -5 -65 -12z m108
-158 l0 -140 -45 0 -45 0 0 140 0 140 45 0 45 0 0 -140z"></path>
      <path d="M610 1125 l0 -185 140 0 140 0 0 185 0 185 -140 0 -140 0 0 -185z
m250 0 l0 -155 -110 0 -110 0 0 155 0 155 110 0 110 0 0 -155z"></path>
      <path d="M692 1238 c-16 -16 -16 -210 0 -226 16 -16 100 -16 116 0 16 16 16
210 0 226 -7 7 -33 12 -58 12 -25 0 -51 -5 -58 -12z m108 -113 l0 -95 -50 0
-50 0 0 95 0 95 50 0 50 0 0 -95z"></path>
      <path d="M1681 2344 c-27 -35 -27 -67 3 -98 42 -46 106 -25 122 40 10 38 -23
78 -68 82 -29 2 -40 -2 -57 -24z m87 -16 c7 -7 12 -21 12 -33 0 -12 -5 -26
-12 -33 -7 -7 -21 -12 -33 -12 -12 0 -26 5 -33 12 -7 7 -12 21 -12 33 0 12 5
26 12 33 7 7 21 12 33 12 12 0 26 -5 33 -12z"></path>
      <path d="M1965 2064 c-30 -33 -32 -63 -4 -98 41 -52 129 -19 129 49 0 12 -9
34 -21 49 -28 35 -72 35 -104 0z m83 -16 c7 -7 12 -21 12 -33 0 -12 -5 -26
-12 -33 -7 -7 -21 -12 -33 -12 -12 0 -26 5 -33 12 -7 7 -12 21 -12 33 0 12 5
26 12 33 7 7 21 12 33 12 12 0 26 -5 33 -12z"></path>
      <path d="M1261 1924 c-12 -15 -21 -37 -21 -49 0 -36 37 -75 71 -75 64 0 94 83
46 128 -32 30 -71 28 -96 -4z m87 -16 c16 -16 15 -53 -2 -68 -21 -16 -56 -9
-72 15 -27 41 39 88 74 53z"></path>
      <path d="M2040 1464 c-78 -20 -206 -86 -269 -137 -114 -95 -203 -238 -237
-382 -32 -139 -1 -371 60 -441 l22 -27 69 38 c37 21 79 48 93 60 l26 23 -17
54 c-24 78 -23 218 3 293 47 136 168 242 315 275 27 6 55 16 62 22 17 14 18
209 1 226 -16 16 -59 14 -128 -4z m120 -107 l0 -93 -58 -12 c-160 -33 -293
-155 -344 -315 -26 -81 -27 -202 -1 -277 l18 -55 -80 -47 -80 -48 -17 39 c-49
107 -62 275 -32 401 42 181 172 345 339 430 66 33 181 68 228 69 l27 1 0 -93z"></path>
      <path d="M2237 1462 c-13 -14 -17 -39 -17 -109 0 -107 3 -111 105 -141 238
-71 363 -295 300 -537 -9 -33 -14 -69 -11 -80 5 -21 132 -101 171 -107 24 -4
58 54 80 137 23 91 20 275 -6 361 -73 236 -257 416 -485 474 -95 25 -116 25
-137 2z m127 -32 c182 -46 342 -175 423 -340 80 -163 92 -332 37 -499 -15 -45
-30 -80 -33 -79 -4 2 -41 23 -84 48 -58 33 -76 48 -71 60 38 87 44 216 14 313
-24 79 -87 175 -144 221 -53 44 -157 93 -213 102 l-43 6 0 94 c0 109 -7 105
114 74z"></path>
      <path d="M1440 1420 c-19 -19 -20 -33 -20 -203 0 -165 2 -186 18 -200 22 -20
56 -22 70 -4 5 6 23 46 40 87 28 68 31 86 32 187 0 100 -2 115 -20 133 -27 27
-93 27 -120 0z m110 -133 c0 -101 -3 -129 -19 -161 -11 -20 -24 -50 -30 -67
-7 -19 -17 -29 -30 -29 -20 0 -21 5 -21 190 l0 190 50 0 50 0 0 -123z"></path>
      <path d="M2072 1181 c-64 -24 -141 -79 -182 -131 -166 -209 -90 -512 157 -628
51 -24 70 -27 158 -27 88 0 107 3 158 27 79 37 157 114 198 195 33 64 34 72
34 178 0 104 -2 114 -32 175 -41 83 -110 152 -192 193 -55 27 -77 32 -155 34
-71 3 -102 -1 -144 -16z m288 -45 c76 -38 153 -116 186 -190 35 -75 39 -191
11 -271 -54 -157 -228 -268 -392 -251 -124 13 -243 98 -301 215 -35 72 -44
182 -21 262 33 111 138 219 247 254 74 24 203 15 270 -19z"></path>
      <path d="M2122 1066 c-62 -20 -117 -62 -151 -113 -125 -188 6 -433 232 -433
164 0 277 117 277 284 0 107 -69 210 -167 251 -54 23 -140 27 -191 11z m218
-62 c25 -16 58 -49 75 -72 28 -41 30 -50 30 -131 0 -80 -3 -92 -30 -137 -42
-68 -105 -105 -189 -111 -180 -15 -308 133 -266 308 10 42 24 64 65 106 62 62
95 73 196 69 64 -2 82 -7 119 -32z"></path>
      <path d="M2148 1008 c-49 -13 -117 -73 -139 -122 -48 -106 -2 -234 104 -287
57 -30 149 -23 205 14 50 32 93 103 99 161 17 143 -132 272 -269 234z m167
-62 c134 -103 74 -318 -94 -334 -103 -10 -191 62 -199 163 -6 69 1 96 35 136
48 56 80 70 154 67 54 -3 73 -9 104 -32z"></path>
      <path d="M1727 504 c-117 -69 -114 -90 24 -218 136 -126 295 -183 488 -173
119 5 213 32 309 89 64 38 206 173 217 207 10 31 -17 57 -108 106 l-75 39 -66
-62 c-75 -70 -119 -95 -203 -117 -73 -19 -143 -19 -218 0 -88 23 -140 53 -206
117 -33 32 -66 58 -72 58 -7 -1 -47 -21 -90 -46z m127 -18 c37 -48 137 -112
213 -136 162 -50 329 -10 458 112 l64 59 80 -47 80 -46 -45 -53 c-80 -94 -178
-160 -297 -200 -162 -54 -336 -41 -494 36 -81 40 -190 128 -233 189 l-21 29
78 45 c43 25 81 46 84 46 4 0 18 -15 33 -34z"></path>
    </g>
  </symbol>
  <symbol version="1.0" xmlns="http://www.w3.org/2000/svg" preserveAspectRatio="xMidYMid meet" viewBox="0 0 300.000000 300.000000" id="creativity">
    <metadata>Created by potrace 1.10, written by Peter Selinger 2001-2011</metadata>
    <g transform="translate(0.000000,300.000000) scale(0.100000,-0.100000)" fill="#000000" stroke="none">
      <path d="M1462 2984 c-12 -8 -22 -20 -22 -26 0 -6 31 -43 69 -83 63 -66 141
-194 141 -231 0 -10 -37 -14 -165 -16 l-166 -3 6 25 c3 14 20 53 37 88 30 61
31 63 13 82 -31 34 -57 21 -92 -46 -49 -92 -63 -160 -63 -304 0 -126 0 -127
-26 -140 -45 -25 -52 -53 -55 -230 -2 -91 0 -171 5 -178 4 -6 18 -12 31 -12
22 0 54 30 100 93 l20 28 63 -32 c52 -27 74 -33 125 -32 63 0 143 28 168 59 9
11 20 2 61 -51 36 -49 55 -65 73 -65 41 0 47 27 43 206 l-3 166 -37 34 -38 34
0 123 c0 205 -42 317 -170 449 -41 43 -80 78 -85 78 -6 0 -21 -7 -33 -16z
m100 -83 c121 -130 158 -232 158 -429 l0 -125 40 -43 40 -44 0 -122 c0 -130
-7 -198 -21 -198 -4 0 -29 27 -54 60 -44 58 -75 74 -91 49 -14 -24 -90 -49
-150 -49 -48 0 -74 6 -120 30 -32 16 -66 27 -74 24 -8 -3 -34 -30 -58 -60 -24
-29 -47 -54 -52 -54 -6 0 -10 66 -10 161 l0 162 39 42 38 42 2 124 c1 134 17
216 54 283 12 22 28 42 36 44 17 6 14 -6 -24 -96 -25 -59 -25 -65 -10 -88 15
-24 17 -24 175 -24 148 0 162 2 181 21 24 24 21 35 -26 135 -20 40 -60 98 -95
136 -57 62 -72 88 -51 88 5 0 38 -31 73 -69z"></path>
      <path d="M1290 2551 c-5 -11 -10 -62 -10 -115 l0 -95 33 -22 c17 -12 38 -29
45 -37 18 -24 15 -87 -8 -124 -27 -44 -25 -59 8 -90 51 -49 129 -62 199 -33
73 31 90 72 53 133 -31 50 -27 95 13 126 70 55 67 49 67 147 0 137 13 129
-205 129 -172 0 -185 -1 -195 -19z m370 -104 l0 -92 -33 -18 c-69 -37 -85
-110 -41 -184 30 -52 25 -63 -42 -89 -52 -20 -111 -13 -160 17 l-32 20 30 59
c29 55 30 63 19 99 -11 38 -60 91 -84 91 -8 0 -12 29 -12 95 l0 95 178 0 177
0 0 -93z"></path>
      <path d="M1226 2279 c-25 -19 -26 -25 -26 -107 0 -137 20 -145 97 -36 49 69
55 109 20 142 -29 28 -57 28 -91 1z m75 -19 c28 -16 24 -33 -28 -112 l-48 -71
-3 78 c-2 62 1 81 14 96 19 21 37 24 65 9z"></path>
      <path d="M1643 2274 c-20 -20 -24 -32 -19 -55 7 -35 81 -148 103 -156 28 -11
43 26 43 107 0 68 -3 80 -25 104 -31 33 -68 34 -102 0z m85 -16 c7 -7 12 -44
12 -97 l0 -86 -45 69 c-25 38 -45 77 -45 86 0 22 20 40 45 40 12 0 26 -5 33
-12z"></path>
      <path d="M1953 2989 c-18 -6 -23 -16 -23 -44 0 -33 -2 -35 -35 -35 -33 0 -55
-20 -55 -49 0 -19 32 -41 61 -41 25 0 29 -4 29 -27 0 -16 4 -33 8 -39 25 -37
82 -12 82 37 0 25 4 29 28 29 16 0 37 9 47 20 15 17 16 24 7 45 -9 20 -19 25
-47 25 -31 0 -35 3 -35 28 0 46 -27 66 -67 51z m37 -50 c0 -37 19 -59 51 -59
37 0 35 -23 -2 -28 -33 -5 -47 -19 -51 -49 -4 -33 -28 -44 -28 -13 0 35 -17
57 -50 63 -37 8 -40 27 -4 27 30 0 53 24 54 56 0 11 3 24 6 27 11 11 24 -3 24
-24z"></path>
      <path d="M802 2768 c-7 -7 -12 -27 -12 -44 0 -30 -3 -33 -36 -36 -72 -6 -72
-70 0 -76 33 -3 36 -6 36 -36 0 -38 15 -56 47 -56 27 0 47 33 40 66 -4 21 0
23 37 26 40 3 41 4 41 38 0 33 -2 35 -40 40 -34 4 -40 8 -37 27 7 50 -43 84
-76 51z m48 -53 c0 -30 25 -55 56 -55 13 0 24 -4 24 -10 0 -5 -11 -10 -23 -10
-28 0 -54 -26 -59 -59 -4 -33 -28 -40 -28 -9 0 37 -27 68 -61 68 -16 0 -29 5
-29 10 0 6 11 10 25 10 29 0 65 32 65 58 0 10 3 22 6 25 12 11 24 -3 24 -28z"></path>
      <path d="M2240 2650 c-6 -11 -8 -31 -4 -44 5 -23 3 -25 -38 -28 -42 -3 -43 -4
-43 -38 0 -34 1 -35 43 -38 41 -3 43 -5 38 -28 -8 -31 9 -64 34 -64 39 0 50
11 50 51 0 39 0 39 40 39 34 0 41 4 46 25 8 34 -11 55 -52 55 -32 0 -34 2 -34
33 0 18 -5 38 -12 45 -19 19 -56 14 -68 -8z m50 -38 c0 -32 29 -62 61 -62 40
0 37 -16 -6 -24 -36 -7 -55 -30 -55 -66 0 -29 -24 -20 -28 11 -5 33 -31 59
-59 59 -12 0 -23 5 -23 10 0 6 13 10 28 10 36 0 52 16 52 52 0 18 5 28 15 28
8 0 15 -8 15 -18z"></path>
      <path d="M2110 2278 c-45 -23 -46 -24 -207 -350 l-163 -328 -65 0 -65 0 0 143
c0 151 -4 167 -47 167 -37 0 -44 -30 -41 -175 l3 -135 -37 0 -38 0 0 136 c0
144 -7 174 -43 174 -43 0 -47 -16 -47 -167 l0 -143 -92 0 -93 0 -65 192 -65
192 -135 114 c-212 179 -227 191 -249 185 -11 -3 -25 -19 -30 -37 -15 -45 -91
-419 -91 -445 0 -11 15 -61 34 -111 l34 -90 -33 0 c-40 0 -49 -11 -64 -75 -60
-267 -31 -576 74 -790 69 -140 118 -188 153 -153 21 21 14 44 -38 125 -87 138
-130 308 -130 518 0 92 13 232 25 275 4 13 68 15 495 15 435 0 490 -2 490 -15
0 -64 -51 -184 -105 -248 l-25 -30 -50 33 c-84 57 -179 58 -264 5 -57 -36 -93
-91 -108 -163 -10 -48 -9 -64 6 -113 21 -65 82 -134 138 -154 l36 -13 -31 -50
c-45 -74 -140 -171 -217 -222 -37 -25 -72 -45 -78 -45 -6 0 -18 -7 -26 -16
-14 -13 -16 -48 -16 -232 0 -119 4 -222 8 -228 4 -6 18 -15 32 -19 20 -6 23
-5 13 6 -17 18 -19 459 -2 459 6 0 42 20 79 45 122 81 272 263 254 309 -4 10
-28 28 -55 41 -155 79 -157 301 -3 376 79 38 163 27 250 -30 31 -21 31 -21 56
-1 54 42 115 163 132 262 5 30 3 41 -13 57 -20 20 -33 20 -500 20 -543 0 -515
5 -532 -79 -5 -25 -12 -115 -15 -200 -5 -129 -2 -173 14 -260 24 -127 67 -243
123 -328 23 -35 39 -66 36 -69 -14 -13 -38 11 -77 77 -94 156 -136 352 -127
585 6 142 22 261 38 281 5 7 22 14 38 17 16 3 31 13 34 21 3 8 -9 58 -26 111
l-32 96 39 192 c48 233 54 257 68 257 15 0 345 -279 354 -299 3 -9 30 -87 60
-175 73 -217 64 -206 178 -206 127 0 126 -1 126 168 0 132 12 181 24 95 3 -25
6 -89 6 -142 0 -62 4 -101 12 -109 7 -7 30 -12 53 -12 23 0 46 5 53 12 8 8 12
49 12 118 0 58 3 122 6 142 13 75 24 24 24 -106 0 -164 3 -168 106 -164 l69 3
165 329 c176 350 179 355 251 356 45 0 269 -108 293 -141 32 -47 21 -87 -84
-305 l-100 -207 24 -26 c18 -20 25 -42 31 -96 12 -128 46 -237 115 -375 23
-46 40 -94 40 -113 0 -39 -30 -83 -63 -93 -37 -11 -67 -45 -67 -77 0 -50 -30
-149 -68 -222 -43 -82 -161 -207 -237 -249 -96 -53 -190 -78 -315 -83 -151 -7
-150 -6 -150 -138 0 -64 -4 -105 -12 -113 -17 -17 -3 -25 21 -12 19 10 21 19
21 120 l0 110 98 0 c198 0 344 60 482 199 65 65 94 104 122 161 39 80 68 178
68 229 0 21 6 33 18 37 56 18 74 30 92 59 33 54 26 98 -35 220 -60 122 -91
227 -102 354 -8 82 -12 90 -51 107 -2 1 42 92 98 204 80 161 100 210 100 244
0 73 -29 103 -165 173 -148 76 -175 81 -235 51z"></path>
      <path d="M2125 2218 c-19 -15 -72 -112 -166 -305 -77 -156 -139 -292 -139
-302 0 -37 18 -41 208 -41 177 0 185 1 204 22 24 28 34 67 21 87 -5 9 -38 32
-74 51 -80 43 -56 52 30 11 35 -16 69 -27 77 -24 8 3 31 39 51 80 42 84 40 95
-20 128 -62 34 -39 50 27 18 42 -19 56 -11 87 48 23 47 24 87 1 116 -19 24
-232 133 -260 133 -11 0 -32 -10 -47 -22z m169 -63 c138 -64 150 -79 116 -146
-12 -24 -24 -45 -25 -47 -1 -2 -24 7 -49 20 -54 26 -79 18 -84 -25 -3 -22 4
-30 46 -51 l50 -25 -34 -71 -34 -70 -75 37 -75 37 -21 -21 c-32 -32 -17 -55
61 -93 39 -19 70 -35 70 -37 0 -2 -7 -17 -15 -33 l-16 -30 -184 0 c-102 0
-185 2 -185 4 0 15 293 596 303 600 24 9 38 5 151 -49z"></path>
      <path d="M711 2116 c-43 -15 -58 -36 -71 -100 -6 -28 -13 -62 -16 -76 -15 -67
-16 -106 -3 -117 8 -6 55 -14 104 -17 l90 -7 73 66 c51 47 72 74 72 91 0 18
-23 42 -90 99 -50 41 -98 75 -108 74 -9 0 -32 -6 -51 -13z m146 -88 l86 -72
-68 -61 -68 -61 -86 4 c-47 2 -87 5 -87 6 -1 0 10 53 24 117 l25 116 36 10
c20 6 40 11 44 12 5 0 47 -31 94 -71z"></path>
      <path d="M161 1894 c0 -11 3 -14 6 -6 3 7 2 16 -1 19 -3 4 -6 -2 -5 -13z"></path>
      <path d="M916 1850 c-36 -35 -66 -68 -66 -74 0 -26 52 -171 67 -188 23 -26
153 -26 176 0 16 17 14 27 -28 152 -25 74 -54 143 -64 154 -19 19 -20 18 -85
-44z m119 -108 c25 -73 45 -134 45 -137 0 -3 -33 -5 -74 -5 l-74 0 -29 86 -29
86 55 53 c31 30 57 53 58 51 1 -1 23 -62 48 -134z"></path>
      <path d="M636 1771 c-19 -20 -19 -23 -1 -81 10 -33 26 -73 36 -90 18 -29 21
-30 92 -30 103 0 113 15 79 117 -24 73 -43 93 -91 93 -21 0 -52 3 -67 6 -22 4
-34 0 -48 -15z m155 -30 c4 -3 15 -31 24 -61 10 -30 20 -61 23 -67 3 -10 -15
-13 -70 -13 l-74 0 -23 68 c-12 37 -25 72 -27 78 -5 12 135 8 147 -5z"></path>
      <path d="M1663 1535 c-15 -11 -24 -34 -33 -82 -15 -87 -58 -178 -115 -241 -55
-61 -79 -71 -103 -43 -37 43 -93 71 -144 71 -57 0 -80 -10 -126 -54 -83 -78
-81 -188 4 -271 31 -30 85 -55 122 -55 18 0 15 -19 -12 -73 -61 -119 -164
-232 -272 -297 -88 -53 -85 -43 -83 -233 0 -151 2 -170 19 -187 18 -18 39 -19
311 -20 259 0 294 2 311 17 15 13 18 32 18 115 0 70 4 100 13 103 6 3 71 7
142 9 193 5 302 47 428 166 102 96 167 222 189 371 l13 84 37 3 c42 4 78 39
78 77 0 12 -24 74 -54 136 -58 122 -81 196 -96 311 -14 112 3 106 -338 107
-237 1 -292 -2 -309 -14z m619 -88 c12 -122 58 -263 125 -385 33 -60 34 -64
19 -87 -13 -19 -25 -25 -54 -25 -47 0 -62 -14 -62 -59 -1 -174 -111 -371 -263
-471 -101 -66 -193 -90 -348 -90 -170 0 -172 -1 -167 -141 l3 -99 -302 0 -303
0 0 169 c0 162 1 170 20 176 38 12 176 123 225 180 61 72 135 201 135 237 0
31 -17 42 -72 51 -50 8 -86 33 -109 78 -53 106 20 229 136 229 43 0 95 -26
133 -66 34 -35 57 -30 118 28 67 63 127 180 144 278 l11 65 302 -2 302 -2 7
-64z"></path>
      <path d="M1916 1370 c-58 -18 -106 -83 -106 -144 0 -69 71 -70 84 -2 12 63 82
87 124 43 12 -13 22 -32 22 -43 0 -42 36 -61 70 -37 18 13 21 22 17 50 -17
101 -113 162 -211 133z m141 -62 c17 -19 33 -47 35 -65 6 -44 -14 -43 -31 2
-39 107 -158 97 -195 -17 -8 -27 -26 -21 -26 8 0 61 56 104 136 104 44 0 54
-4 81 -32z"></path>
      <path d="M1218 1075 c-10 -22 -9 -29 9 -46 38 -38 89 3 63 51 -16 29 -58 26
-72 -5z"></path>
    </g>
  </symbol>
  <symbol version="1.0" xmlns="http://www.w3.org/2000/svg" preserveAspectRatio="xMidYMid meet" viewBox="0 0 300.000000 300.000000" id="implementation">
    <metadata>Created by potrace 1.10, written by Peter Selinger 2001-2011</metadata>
    <g transform="translate(0.000000,300.000000) scale(0.100000,-0.100000)" fill="#000000" stroke="none">
      <path d="M840 2943 c-51 -8 -175 -44 -219 -64 l-46 -19 0 -145 0 -145 86 0
c107 0 118 -9 84 -66 -44 -71 -24 -124 47 -124 66 0 85 48 47 121 -31 63 -24
69 81 69 l90 0 0 60 c0 33 -2 60 -3 60 -2 0 -19 -7 -37 -16 -27 -14 -39 -15
-71 -5 -91 27 -109 156 -29 218 21 17 91 16 118 -3 22 -15 22 -14 22 25 l0 41
-72 -1 c-40 -1 -84 -4 -98 -6z m0 -40 c0 -4 -10 -17 -22 -30 -30 -32 -36 -116
-11 -163 25 -47 78 -82 123 -79 19 2 36 0 38 -4 8 -22 -4 -27 -68 -27 -57 0
-74 -4 -90 -20 -20 -20 -20 -20 -40 0 -16 16 -33 20 -90 20 l-70 0 0 120 0
120 38 15 c33 14 165 53 185 54 4 1 7 -2 7 -6z m-10 -469 c0 -16 -43 -29 -65
-20 -20 7 -19 29 6 78 l21 41 19 -43 c10 -23 19 -48 19 -56z"></path>
      <path d="M1058 2893 c4 -87 -5 -94 -72 -58 -47 25 -57 28 -80 17 -65 -29 -49
-132 20 -132 14 0 43 9 65 21 63 31 69 24 69 -81 l0 -90 83 0 c48 0 88 -5 94
-11 9 -9 5 -26 -15 -66 -25 -50 -26 -56 -11 -81 30 -54 129 -35 129 24 0 13
-10 44 -22 69 -29 59 -21 65 90 65 l82 0 0 120 0 120 -92 45 c-92 44 -197 76
-293 89 l-50 7 3 -58z m130 2 c80 -19 214 -71 244 -94 22 -17 23 -24 20 -110
l-3 -91 -67 0 c-52 0 -70 -4 -87 -20 l-22 -20 -18 20 c-15 17 -31 20 -92 20
l-73 0 0 68 c0 46 -5 75 -16 91 -16 22 -16 25 0 51 9 16 16 44 16 64 0 42 4
43 98 21z m-217 -90 c34 -18 32 -27 -11 -45 -40 -17 -60 -7 -60 30 0 35 22 40
71 15z m337 -370 c-2 -15 -12 -21 -36 -23 -44 -4 -51 18 -22 76 l22 47 19 -40
c11 -22 18 -49 17 -60z"></path>
      <path d="M450 2784 c-36 -25 -87 -67 -113 -92 -47 -45 -137 -154 -137 -166 0
-3 73 -7 163 -8 l162 -3 0 -83 c0 -45 1 -82 1 -82 1 0 18 7 39 15 124 52 214
-132 103 -209 -25 -18 -103 -22 -113 -6 -18 29 -24 -4 -27 -135 -3 -126 -1
-144 12 -139 8 3 28 10 44 15 61 18 136 -46 136 -116 0 -36 -31 -89 -61 -105
-27 -15 -80 -15 -107 -1 -21 11 -21 9 -24 -71 l-3 -83 -162 -3 c-90 -1 -163
-5 -163 -8 0 -14 105 -136 153 -180 49 -44 159 -124 171 -124 3 0 7 69 8 153
l3 152 83 3 82 3 -15 29 c-41 80 16 160 116 160 57 0 109 -50 109 -107 0 -21
-7 -49 -16 -61 l-15 -22 150 0 150 0 -15 37 c-34 79 22 153 115 153 36 0 49
-6 77 -34 27 -27 34 -42 34 -73 0 -21 -7 -48 -15 -60 l-16 -22 88 -3 88 -3 0
-123 c0 -67 3 -122 7 -122 13 0 165 157 197 203 l32 46 -113 3 -113 3 -3 83
c-2 45 -5 82 -8 82 -3 0 -15 -5 -26 -11 -30 -16 -82 -13 -111 5 -66 44 -63
170 5 203 44 21 59 23 95 8 19 -8 37 -15 39 -15 2 0 4 66 4 146 0 136 -1 146
-17 138 -10 -4 -38 -9 -63 -12 -39 -3 -50 0 -73 23 -64 65 -50 168 29 201 33
14 89 9 100 -7 15 -25 23 -1 26 74 l3 82 113 3 c61 1 112 5 112 8 0 15 -107
139 -163 190 l-62 56 -5 -124 -5 -123 -83 -3 c-75 -3 -83 -5 -76 -20 14 -31
16 -90 4 -111 -6 -12 -26 -31 -43 -41 -62 -38 -142 -17 -172 46 -19 40 -19 57
0 94 l16 30 -151 0 -151 0 15 -22 c20 -29 20 -87 0 -116 -49 -71 -170 -67
-209 8 -19 37 -19 63 0 100 l15 29 -82 3 -83 3 -3 153 c-1 83 -6 152 -10 152
-4 -1 -36 -21 -72 -46z m42 -56 c0 -18 0 -66 -1 -105 l-1 -73 -115 0 c-63 0
-115 4 -115 8 0 28 213 222 228 208 2 -3 4 -20 4 -38z m1157 -95 c34 -37 61
-71 61 -75 0 -5 -31 -8 -70 -8 l-70 0 0 75 c0 41 4 75 9 75 5 0 37 -30 70 -67z
m-1003 -159 c-3 -9 -6 -28 -6 -43 0 -24 -3 -26 -40 -26 l-40 0 0 42 0 43 46 0
c38 0 45 -3 40 -16z m484 -30 c0 -85 62 -147 147 -147 l43 0 0 -39 c0 -86 81
-168 151 -154 l28 5 3 -95 3 -95 -28 7 c-34 7 -105 -26 -131 -63 -11 -15 -22
-49 -24 -80 l-4 -53 -46 0 c-83 0 -142 -60 -142 -144 l0 -46 -95 0 -95 0 0 43
c0 50 -35 109 -80 132 -16 8 -49 15 -72 15 -44 0 -44 0 -40 33 4 40 -32 113
-71 141 -19 14 -43 21 -73 20 l-44 -1 0 93 0 93 33 -5 c74 -11 147 62 147 149
l0 49 33 -6 c44 -8 114 28 145 74 18 26 23 46 20 78 l-3 42 97 0 98 0 0 -46z
m370 3 l0 -43 -40 1 -40 0 0 43 0 42 40 0 40 0 0 -43z m-864 -831 c1 -1 4 -18
8 -38 l7 -38 -46 0 -45 0 0 44 0 45 38 -6 c20 -3 38 -6 38 -7z m864 -33 l0
-43 -40 0 -40 0 0 43 0 42 40 0 40 0 0 -42z m-1010 -213 c0 -60 -3 -110 -6
-110 -26 0 -224 186 -224 211 0 5 52 9 115 9 l115 0 0 -110z m1220 103 c0 -13
-100 -122 -121 -134 -18 -9 -19 -5 -19 66 l0 75 70 0 c39 0 70 -3 70 -7z"></path>
      <path d="M1675 2473 l-90 -4 3 -82 c5 -108 -6 -120 -72 -82 -54 31 -82 30
-109 -7 -22 -29 -18 -65 9 -92 21 -22 52 -20 100 6 67 35 77 24 72 -82 l-3
-90 63 0 c34 0 62 2 62 4 0 2 -7 17 -15 32 -8 16 -15 38 -15 49 0 34 39 85 76
101 44 18 84 11 124 -23 17 -14 30 -22 30 -19 0 2 -15 52 -34 109 -44 134 -71
188 -94 185 -9 -1 -57 -4 -107 -5z m135 -85 c16 -35 33 -78 36 -97 7 -31 5
-33 -15 -26 -41 13 -90 -4 -132 -46 -35 -35 -39 -44 -39 -89 0 -47 -2 -50 -25
-50 -24 0 -25 2 -25 70 0 47 -5 79 -15 94 -14 21 -14 24 0 29 12 5 15 24 15
86 l0 80 83 4 c45 1 83 4 85 5 2 1 16 -26 32 -60z m-312 -110 c33 -20 34 -22
16 -35 -47 -35 -97 -23 -86 20 5 19 19 36 31 37 2 0 19 -10 39 -22z"></path>
      <path d="M131 2400 c-41 -93 -70 -199 -78 -287 l-6 -73 60 0 61 0 -16 43 c-14
39 -14 45 3 80 21 45 59 67 116 67 57 0 109 -50 109 -107 0 -21 -7 -49 -16
-61 l-15 -22 65 0 66 0 0 89 c0 50 4 92 10 96 5 3 32 -6 59 -20 62 -31 72 -31
99 -2 24 25 28 57 11 88 -18 35 -49 39 -108 13 -29 -13 -57 -21 -62 -18 -5 3
-9 45 -9 95 l0 89 -159 0 -158 0 -32 -70z m319 -34 c0 -53 4 -77 15 -86 8 -7
15 -18 15 -25 0 -7 -7 -18 -15 -25 -11 -9 -15 -33 -15 -86 0 -67 -2 -74 -20
-74 -17 0 -20 7 -20 43 0 84 -66 147 -154 147 -44 0 -53 -4 -92 -44 -41 -40
-44 -47 -44 -95 0 -44 -3 -51 -20 -51 -15 0 -20 7 -20 29 0 66 46 236 84 309
l17 32 134 0 135 0 0 -74z m188 -105 c3 -15 -3 -30 -13 -37 -15 -11 -25 -10
-58 8 l-41 20 35 19 c45 24 73 21 77 -10z"></path>
      <path d="M224 2172 c-6 -4 -17 -17 -23 -30 -11 -20 -9 -31 14 -77 15 -29 24
-58 21 -64 -5 -7 -43 -11 -98 -11 l-91 0 7 -74 c8 -91 36 -193 77 -286 l32
-70 158 0 159 0 0 90 c0 106 6 113 71 76 55 -32 70 -32 98 -2 30 32 26 82 -11
109 l-27 20 -54 -28 c-31 -15 -60 -24 -66 -21 -7 4 -11 43 -11 97 l0 89 -90 0
c-107 0 -113 6 -75 78 23 43 25 54 14 74 -16 31 -28 38 -64 38 -16 0 -35 -4
-41 -8z m74 -46 c2 -10 -4 -36 -14 -58 l-18 -39 -17 33 c-19 35 -24 70 -12 82
14 14 58 1 61 -18z m77 -166 l75 0 0 -74 c0 -53 4 -77 15 -86 8 -7 15 -18 15
-25 0 -7 -7 -18 -15 -25 -11 -9 -15 -33 -15 -86 l0 -74 -136 0 -135 0 -25 56
c-32 72 -61 180 -70 255 l-7 59 75 0 c61 0 78 4 92 19 17 19 18 19 37 0 15
-15 33 -19 94 -19z m260 -185 c0 -37 -28 -44 -76 -19 l-33 17 35 18 c49 27 74
21 74 -16z"></path>
      <path d="M2080 2153 c-60 -23 -77 -88 -39 -149 l21 -34 -94 0 -94 0 4 -95 4
-96 -47 26 c-60 31 -76 31 -114 -1 -26 -21 -31 -33 -31 -69 0 -36 5 -48 31
-69 37 -31 57 -32 109 -6 22 11 42 20 46 20 3 0 4 -41 2 -90 l-3 -90 106 0
105 0 107 -142 107 -143 0 -189 0 -188 44 3 44 4 6 -70 c3 -38 13 -198 21
-355 9 -157 18 -304 21 -327 l5 -43 184 0 184 0 5 42 c3 24 12 171 21 328 8
157 18 317 21 355 l6 70 44 -4 44 -3 0 280 0 279 -26 27 c-25 24 -33 26 -118
26 l-92 0 -42 -90 c-24 -49 -45 -90 -47 -90 -2 0 -23 41 -47 90 l-42 90 -96 0
-95 0 -84 84 c-71 72 -82 86 -73 103 19 35 52 181 59 258 l6 75 -47 0 -46 0
20 40 c26 51 25 83 -2 114 -23 26 -70 40 -98 29z m87 -86 c-2 -18 -10 -46 -18
-64 -16 -40 0 -63 43 -63 l30 0 -7 -65 c-4 -36 -18 -107 -31 -156 -13 -50 -24
-98 -24 -108 0 -10 40 -56 89 -104 l88 -87 89 0 89 0 45 -88 c59 -115 70 -115
130 0 l45 88 70 0 c121 0 115 14 115 -286 l0 -254 -23 0 c-12 0 -32 -7 -44
-15 -22 -15 -23 -20 -38 -280 -2 -38 -7 -119 -11 -180 -4 -60 -9 -157 -13
-215 l-6 -105 -160 0 -160 0 -7 100 c-3 55 -9 152 -12 215 -23 415 -26 444
-48 462 -11 10 -31 18 -44 18 l-24 0 0 169 0 170 -106 143 c-58 79 -113 149
-122 156 -10 7 -50 12 -109 12 l-93 0 0 79 c0 102 -11 114 -76 82 -39 -19 -49
-20 -72 -9 -30 15 -42 68 -21 94 15 19 60 18 103 -3 52 -24 65 -9 68 85 l3 77
77 3 c96 4 108 14 84 75 -9 23 -16 52 -16 64 0 40 48 58 94 35 24 -12 27 -18
23 -45z"></path>
      <path d="M1903 2065 c-9 -20 -8 -25 3 -25 8 0 14 10 14 25 0 31 -2 31 -17 0z"></path>
      <path d="M2588 1870 c-158 -27 -201 -248 -65 -338 33 -22 52 -27 102 -27 79 0
132 32 165 100 68 140 -47 291 -202 265z m112 -49 c108 -57 108 -211 0 -268
-54 -29 -91 -29 -148 -2 -57 28 -82 69 -82 135 0 88 67 154 155 154 22 0 56
-8 75 -19z"></path>
      <path d="M762 1650 c-12 -5 -27 -21 -34 -35 -10 -22 -8 -34 14 -79 20 -40 24
-56 15 -65 -6 -6 -46 -11 -97 -11 l-85 0 0 -145 0 -145 75 -29 c89 -35 219
-61 301 -61 l59 0 0 40 0 40 -25 -16 c-31 -21 -86 -21 -117 0 -32 21 -48 57
-48 107 0 57 51 109 107 109 21 0 49 -7 61 -16 l22 -15 0 65 0 66 -90 0 c-107
0 -113 6 -76 79 22 42 24 54 15 75 -7 14 -25 30 -42 36 -16 5 -30 10 -31 9 -1
0 -11 -4 -24 -9z m66 -54 c4 -18 -27 -86 -39 -86 -3 0 -14 18 -24 40 -15 33
-16 42 -5 55 18 21 64 15 68 -9z m-11 -146 c20 -15 41 -20 89 -20 57 0 64 -2
64 -20 0 -17 -7 -20 -44 -20 -73 0 -136 -67 -136 -145 0 -36 24 -94 44 -107
42 -27 -104 1 -186 36 l-38 16 0 110 c0 61 -1 113 -2 118 -2 4 32 8 75 10 64
2 79 6 90 22 15 24 13 24 44 0z"></path>
      <path d="M1238 1645 c-40 -22 -44 -49 -14 -108 34 -69 26 -77 -80 -77 l-84 0
0 -84 c0 -106 -10 -117 -71 -81 -53 30 -80 31 -104 5 -38 -42 -11 -120 41
-120 13 0 38 9 56 20 18 11 41 20 50 20 23 0 32 -39 24 -96 -3 -24 -2 -44 3
-44 5 0 45 7 89 15 102 20 178 46 270 92 l72 38 0 117 0 118 -90 0 c-107 0
-113 6 -76 79 31 61 24 93 -25 110 -17 6 -32 11 -33 11 -1 -1 -13 -7 -28 -15z
m70 -52 c3 -23 -23 -83 -37 -83 -12 0 -35 76 -27 95 9 25 60 16 64 -12z m73
-163 c36 0 68 -2 70 -4 2 -2 2 -46 -1 -97 l-5 -93 -40 -23 c-52 -30 -207 -80
-273 -89 l-52 -7 0 50 c0 33 -5 55 -15 63 -13 11 -12 15 5 37 16 20 20 41 20
94 l0 69 73 0 c61 0 77 3 92 20 l18 20 22 -20 c17 -16 35 -20 86 -20z m-406
-162 c34 -15 32 -25 -9 -45 -44 -21 -66 -12 -66 27 0 25 4 30 25 30 13 0 36
-5 50 -12z"></path>
    </g>
  </symbol>
</svg>